Coordinates
version=1
nRows=5
nColumns=40
inDegrees=yes

Units are S.I. units (second, meters, Newtons, ...)
If the header above contains a line with 'inDegrees', this indicates whether rotational values are in degrees (yes) or radians (no).

endheader
time	pelvis_tilt	pelvis_list	pelvis_rotation	pelvis_tx	pelvis_ty	pelvis_tz	hip_flexion_r	hip_adduction_r	hip_rotation_r	knee_angle_r	knee_angle_r_beta	ankle_angle_r	subtalar_angle_r	mtp_angle_r	hip_flexion_l	hip_adduction_l	hip_rotation_l	knee_angle_l	knee_angle_l_beta	ankle_angle_l	subtalar_angle_l	mtp_angle_l	lumbar_extension	lumbar_bending	lumbar_rotation	arm_flex_r	arm_add_r	arm_rot_r	elbow_flex_r	pro_sup_r	wrist_flex_r	wrist_dev_r	arm_flex_l	arm_add_l	arm_rot_l	elbow_flex_l	pro_sup_l	wrist_flex_l	wrist_dev_l
      4.28000000	    -35.18095495	      3.08687986	      4.78184193	     -0.47723381	      0.60250800	     -0.89361782	     99.86882507	    -11.37975998	     11.82087901	    108.02106445	      1.88532324	     43.93972349	      0.00000000	      0.00000000	     98.35081893	    -13.27043341	     -2.42348273	    107.01355742	      1.86773892	     42.19954385	      0.00000000	      0.00000000	    -21.72846378	     -5.20211901	     -7.48360171	     -5.86485729	    -44.24322630	     57.51125319	     83.75375219	     87.88470695	      0.00000000	      0.00000000	    -26.76444819	    -42.26287299	     34.38495273	     89.24465864	     87.84248647	      0.00000000	      0.00000000
      4.28500000	    -35.17395070	      3.00881042	      4.80119321	     -0.47709786	      0.60249644	     -0.89345711	     99.82239065	    -11.36395014	     11.75670439	    108.03650714	      1.88559276	     44.03307886	      0.00000000	      0.00000000	     98.36568341	    -13.26464320	     -2.33338063	    107.02218235	      1.86788945	     42.27869958	      0.00000000	      0.00000000	    -21.76144479	     -5.13367483	     -7.25625648	     -6.35866735	    -44.14082732	     56.81725257	     83.73593010	     87.90055351	      0.00000000	      0.00000000	    -26.45899802	    -42.45280263	     34.68032720	     89.28760677	     87.89057835	      0.00000000	      0.00000000
      4.29000000	    -35.31011035	      2.90653165	      4.86200674	     -0.47719858	      0.60242101	     -0.89343004	     99.93002177	    -11.38594223	     11.68137081	    108.00544792	      1.88505068	     43.98150765	      0.00000000	      0.00000000	     98.54000010	    -13.17666704	     -2.20591519	    106.97751672	      1.86710989	     42.27025813	      0.00000000	      0.00000000	    -21.61428041	     -5.01971372	     -7.02794553	     -6.81051734	    -44.09400043	     56.33620422	     83.75188745	     87.88773652	      0.00000000	      0.00000000	    -25.96583738	    -42.64451105	     35.32399104	     89.21484785	     87.89970114	      0.00000000	      0.00000000
      4.29500000	    -35.25473662	      2.87253583	      5.07954963	     -0.47691079	      0.60281346	     -0.89381520	     99.81263334	    -11.65047720	     11.64960848	    107.98452064	      1.88468543	     44.03499694	      0.00000000	      0.00000000	     98.43669070	    -12.88453071	     -2.15855750	    106.93159525	      1.86630841	     42.56747139	      0.00000000	      0.00000000	    -21.68401707	     -4.88839593	     -7.16298803	     -6.74585703	    -44.11988234	     56.39715311	     83.72707114	     87.88796782	      0.00000000	      0.00000000	    -25.70450384	    -42.72999288	     35.71716108	     89.21991089	     87.89747913	      0.00000000	      0.00000000
      4.30000000	    -35.45953784	      2.91674116	      5.37333635	     -0.47703544	      0.60279854	     -0.89441621	    100.04196141	    -11.97150420	     11.78474638	    107.98429437	      1.88468148	     44.02009987	      0.00000000	      0.00000000	     98.58719572	    -12.48988081	     -2.23590661	    106.81758826	      1.86431861	     42.33333453	      0.00000000	      0.00000000	    -21.46138777	     -4.83162125	     -7.27821526	     -7.07030917	    -44.11886130	     56.06234699	     83.74983227	     87.86843693	      0.00000000	      0.00000000	    -25.33847635	    -42.87335377	     36.15759094	     89.16733606	     87.88675689	      0.00000000	      0.00000000
